<mxfile host="app.diagrams.net" agent="Mozilla/5.0 (Macintosh; Intel Mac OS X 10.15; rv:137.0) Gecko/20100101 Firefox/137.0" version="26.2.9">
  <diagram name="Страница — 1" id="RYcYLEc_5OmzIEXitnJE">
    <mxGraphModel dx="2557" dy="2172" grid="1" gridSize="10" guides="1" tooltips="1" connect="1" arrows="1" fold="1" page="1" pageScale="1" pageWidth="827" pageHeight="1169" math="0" shadow="0">
      <root>
        <mxCell id="0" />
        <mxCell id="1" parent="0" />
        <mxCell id="lO8gTa4MTcMJDJ7wkEKq-183" style="rounded=0;orthogonalLoop=1;jettySize=auto;html=1;exitX=0;exitY=0.5;exitDx=0;exitDy=0;endArrow=ERoneToMany;endFill=0;startArrow=ERone;startFill=0;edgeStyle=orthogonalEdgeStyle;" edge="1" parent="1" source="lO8gTa4MTcMJDJ7wkEKq-208" target="lO8gTa4MTcMJDJ7wkEKq-178">
          <mxGeometry relative="1" as="geometry" />
        </mxCell>
        <mxCell id="lO8gTa4MTcMJDJ7wkEKq-177" value="project" style="rounded=0;whiteSpace=wrap;html=1;" vertex="1" parent="1">
          <mxGeometry x="400" y="260" width="120" height="60" as="geometry" />
        </mxCell>
        <mxCell id="lO8gTa4MTcMJDJ7wkEKq-184" style="rounded=0;orthogonalLoop=1;jettySize=auto;html=1;exitX=0.5;exitY=1;exitDx=0;exitDy=0;entryX=0.5;entryY=0;entryDx=0;entryDy=0;endArrow=ERoneToMany;endFill=0;startArrow=none;startFill=0;" edge="1" parent="1" source="lO8gTa4MTcMJDJ7wkEKq-178" target="lO8gTa4MTcMJDJ7wkEKq-180">
          <mxGeometry relative="1" as="geometry" />
        </mxCell>
        <mxCell id="lO8gTa4MTcMJDJ7wkEKq-178" value="task" style="rounded=0;whiteSpace=wrap;html=1;" vertex="1" parent="1">
          <mxGeometry x="400" y="585" width="120" height="60" as="geometry" />
        </mxCell>
        <mxCell id="lO8gTa4MTcMJDJ7wkEKq-182" style="edgeStyle=orthogonalEdgeStyle;rounded=0;orthogonalLoop=1;jettySize=auto;html=1;exitX=1;exitY=0.5;exitDx=0;exitDy=0;endArrow=ERoneToMany;endFill=0;" edge="1" parent="1" source="lO8gTa4MTcMJDJ7wkEKq-179" target="lO8gTa4MTcMJDJ7wkEKq-177">
          <mxGeometry relative="1" as="geometry" />
        </mxCell>
        <mxCell id="lO8gTa4MTcMJDJ7wkEKq-189" style="rounded=0;orthogonalLoop=1;jettySize=auto;html=1;exitX=0;exitY=0.75;exitDx=0;exitDy=0;entryX=0.5;entryY=0;entryDx=0;entryDy=0;endArrow=none;startFill=0;" edge="1" parent="1" source="lO8gTa4MTcMJDJ7wkEKq-179" target="lO8gTa4MTcMJDJ7wkEKq-188">
          <mxGeometry relative="1" as="geometry" />
        </mxCell>
        <mxCell id="lO8gTa4MTcMJDJ7wkEKq-195" style="rounded=0;orthogonalLoop=1;jettySize=auto;html=1;exitX=1;exitY=0.75;exitDx=0;exitDy=0;entryX=0;entryY=0;entryDx=0;entryDy=0;endArrow=none;startFill=0;" edge="1" parent="1" source="lO8gTa4MTcMJDJ7wkEKq-179" target="lO8gTa4MTcMJDJ7wkEKq-194">
          <mxGeometry relative="1" as="geometry" />
        </mxCell>
        <mxCell id="lO8gTa4MTcMJDJ7wkEKq-179" value="user" style="rounded=0;whiteSpace=wrap;html=1;" vertex="1" parent="1">
          <mxGeometry x="80" y="260" width="120" height="60" as="geometry" />
        </mxCell>
        <mxCell id="lO8gTa4MTcMJDJ7wkEKq-180" value="subtasks" style="rounded=0;whiteSpace=wrap;html=1;" vertex="1" parent="1">
          <mxGeometry x="400" y="800" width="120" height="60" as="geometry" />
        </mxCell>
        <mxCell id="lO8gTa4MTcMJDJ7wkEKq-185" style="edgeStyle=orthogonalEdgeStyle;rounded=0;orthogonalLoop=1;jettySize=auto;html=1;exitX=0.5;exitY=1;exitDx=0;exitDy=0;startArrow=none;startFill=0;endArrow=ERoneToMany;endFill=0;" edge="1" parent="1" source="lO8gTa4MTcMJDJ7wkEKq-181" target="lO8gTa4MTcMJDJ7wkEKq-179">
          <mxGeometry relative="1" as="geometry" />
        </mxCell>
        <mxCell id="lO8gTa4MTcMJDJ7wkEKq-181" value="role" style="rounded=0;whiteSpace=wrap;html=1;" vertex="1" parent="1">
          <mxGeometry x="80" y="80" width="120" height="60" as="geometry" />
        </mxCell>
        <mxCell id="lO8gTa4MTcMJDJ7wkEKq-188" value="id" style="ellipse;whiteSpace=wrap;html=1;" vertex="1" parent="1">
          <mxGeometry x="-60" y="360" width="90" height="40" as="geometry" />
        </mxCell>
        <mxCell id="lO8gTa4MTcMJDJ7wkEKq-192" style="rounded=0;orthogonalLoop=1;jettySize=auto;html=1;exitX=0.5;exitY=0;exitDx=0;exitDy=0;entryX=0.35;entryY=1.033;entryDx=0;entryDy=0;entryPerimeter=0;endArrow=none;startFill=0;" edge="1" parent="1" source="lO8gTa4MTcMJDJ7wkEKq-191" target="lO8gTa4MTcMJDJ7wkEKq-179">
          <mxGeometry relative="1" as="geometry">
            <mxPoint x="120" y="330" as="targetPoint" />
          </mxGeometry>
        </mxCell>
        <mxCell id="lO8gTa4MTcMJDJ7wkEKq-191" value="name" style="ellipse;whiteSpace=wrap;html=1;" vertex="1" parent="1">
          <mxGeometry x="50" y="380" width="90" height="40" as="geometry" />
        </mxCell>
        <mxCell id="lO8gTa4MTcMJDJ7wkEKq-196" style="rounded=0;orthogonalLoop=1;jettySize=auto;html=1;exitX=0.5;exitY=0;exitDx=0;exitDy=0;entryX=0.75;entryY=1;entryDx=0;entryDy=0;endArrow=none;startFill=0;" edge="1" parent="1" source="lO8gTa4MTcMJDJ7wkEKq-193" target="lO8gTa4MTcMJDJ7wkEKq-179">
          <mxGeometry relative="1" as="geometry" />
        </mxCell>
        <mxCell id="lO8gTa4MTcMJDJ7wkEKq-193" value="email" style="ellipse;whiteSpace=wrap;html=1;" vertex="1" parent="1">
          <mxGeometry x="160" y="380" width="90" height="40" as="geometry" />
        </mxCell>
        <mxCell id="lO8gTa4MTcMJDJ7wkEKq-194" value="password" style="ellipse;whiteSpace=wrap;html=1;" vertex="1" parent="1">
          <mxGeometry x="270" y="350" width="90" height="40" as="geometry" />
        </mxCell>
        <mxCell id="lO8gTa4MTcMJDJ7wkEKq-198" style="rounded=0;orthogonalLoop=1;jettySize=auto;html=1;exitX=0.5;exitY=1;exitDx=0;exitDy=0;entryX=0.75;entryY=0;entryDx=0;entryDy=0;endArrow=none;startFill=0;" edge="1" parent="1" source="lO8gTa4MTcMJDJ7wkEKq-197" target="lO8gTa4MTcMJDJ7wkEKq-177">
          <mxGeometry relative="1" as="geometry" />
        </mxCell>
        <mxCell id="lO8gTa4MTcMJDJ7wkEKq-197" value="id" style="ellipse;whiteSpace=wrap;html=1;" vertex="1" parent="1">
          <mxGeometry x="550" y="90" width="90" height="40" as="geometry" />
        </mxCell>
        <mxCell id="lO8gTa4MTcMJDJ7wkEKq-200" style="rounded=0;orthogonalLoop=1;jettySize=auto;html=1;exitX=0.5;exitY=1;exitDx=0;exitDy=0;entryX=0.25;entryY=0;entryDx=0;entryDy=0;endArrow=none;startFill=0;" edge="1" parent="1" source="lO8gTa4MTcMJDJ7wkEKq-199" target="lO8gTa4MTcMJDJ7wkEKq-177">
          <mxGeometry relative="1" as="geometry" />
        </mxCell>
        <mxCell id="lO8gTa4MTcMJDJ7wkEKq-199" value="user_id" style="ellipse;whiteSpace=wrap;html=1;" vertex="1" parent="1">
          <mxGeometry x="340" y="150" width="90" height="40" as="geometry" />
        </mxCell>
        <mxCell id="lO8gTa4MTcMJDJ7wkEKq-202" style="rounded=0;orthogonalLoop=1;jettySize=auto;html=1;exitX=0;exitY=0.5;exitDx=0;exitDy=0;entryX=1;entryY=0.25;entryDx=0;entryDy=0;endArrow=none;startFill=0;" edge="1" parent="1" source="lO8gTa4MTcMJDJ7wkEKq-201" target="lO8gTa4MTcMJDJ7wkEKq-177">
          <mxGeometry relative="1" as="geometry" />
        </mxCell>
        <mxCell id="lO8gTa4MTcMJDJ7wkEKq-201" value="name" style="ellipse;whiteSpace=wrap;html=1;" vertex="1" parent="1">
          <mxGeometry x="610" y="210" width="90" height="40" as="geometry" />
        </mxCell>
        <mxCell id="lO8gTa4MTcMJDJ7wkEKq-204" style="rounded=0;orthogonalLoop=1;jettySize=auto;html=1;exitX=0;exitY=0.5;exitDx=0;exitDy=0;entryX=1;entryY=0.5;entryDx=0;entryDy=0;endArrow=none;startFill=0;" edge="1" parent="1" source="lO8gTa4MTcMJDJ7wkEKq-203" target="lO8gTa4MTcMJDJ7wkEKq-177">
          <mxGeometry relative="1" as="geometry" />
        </mxCell>
        <mxCell id="lO8gTa4MTcMJDJ7wkEKq-203" value="&lt;div&gt;status&lt;/div&gt;" style="ellipse;whiteSpace=wrap;html=1;" vertex="1" parent="1">
          <mxGeometry x="610" y="280" width="90" height="40" as="geometry" />
        </mxCell>
        <mxCell id="lO8gTa4MTcMJDJ7wkEKq-207" style="rounded=0;orthogonalLoop=1;jettySize=auto;html=1;entryX=0.5;entryY=0;entryDx=0;entryDy=0;endArrow=none;startFill=0;" edge="1" parent="1" source="lO8gTa4MTcMJDJ7wkEKq-205" target="lO8gTa4MTcMJDJ7wkEKq-177">
          <mxGeometry relative="1" as="geometry" />
        </mxCell>
        <mxCell id="lO8gTa4MTcMJDJ7wkEKq-205" value="deadline" style="ellipse;whiteSpace=wrap;html=1;" vertex="1" parent="1">
          <mxGeometry x="450" y="140" width="90" height="40" as="geometry" />
        </mxCell>
        <mxCell id="lO8gTa4MTcMJDJ7wkEKq-210" style="edgeStyle=orthogonalEdgeStyle;rounded=0;orthogonalLoop=1;jettySize=auto;html=1;exitX=0.5;exitY=0;exitDx=0;exitDy=0;entryX=0.5;entryY=1;entryDx=0;entryDy=0;endArrow=ERoneToMany;endFill=0;startArrow=ERone;startFill=0;" edge="1" parent="1" source="lO8gTa4MTcMJDJ7wkEKq-208" target="lO8gTa4MTcMJDJ7wkEKq-177">
          <mxGeometry relative="1" as="geometry" />
        </mxCell>
        <mxCell id="lO8gTa4MTcMJDJ7wkEKq-208" value="task_to_project" style="rounded=0;whiteSpace=wrap;html=1;" vertex="1" parent="1">
          <mxGeometry x="580" y="400" width="120" height="60" as="geometry" />
        </mxCell>
        <mxCell id="lO8gTa4MTcMJDJ7wkEKq-213" style="rounded=0;orthogonalLoop=1;jettySize=auto;html=1;exitX=0;exitY=0.5;exitDx=0;exitDy=0;entryX=1;entryY=0.25;entryDx=0;entryDy=0;endArrow=none;startFill=0;" edge="1" parent="1" source="lO8gTa4MTcMJDJ7wkEKq-211" target="lO8gTa4MTcMJDJ7wkEKq-208">
          <mxGeometry relative="1" as="geometry" />
        </mxCell>
        <mxCell id="lO8gTa4MTcMJDJ7wkEKq-211" value="project_id" style="ellipse;whiteSpace=wrap;html=1;" vertex="1" parent="1">
          <mxGeometry x="760" y="370" width="90" height="40" as="geometry" />
        </mxCell>
        <mxCell id="lO8gTa4MTcMJDJ7wkEKq-214" style="rounded=0;orthogonalLoop=1;jettySize=auto;html=1;exitX=0;exitY=0.5;exitDx=0;exitDy=0;entryX=1;entryY=0.75;entryDx=0;entryDy=0;endArrow=none;startFill=0;" edge="1" parent="1" source="lO8gTa4MTcMJDJ7wkEKq-212" target="lO8gTa4MTcMJDJ7wkEKq-208">
          <mxGeometry relative="1" as="geometry" />
        </mxCell>
        <mxCell id="lO8gTa4MTcMJDJ7wkEKq-212" value="task_id" style="ellipse;whiteSpace=wrap;html=1;" vertex="1" parent="1">
          <mxGeometry x="780" y="440" width="90" height="40" as="geometry" />
        </mxCell>
        <mxCell id="lO8gTa4MTcMJDJ7wkEKq-217" style="rounded=0;orthogonalLoop=1;jettySize=auto;html=1;exitX=1;exitY=1;exitDx=0;exitDy=0;entryX=0.25;entryY=0;entryDx=0;entryDy=0;endArrow=none;startFill=0;" edge="1" parent="1" source="lO8gTa4MTcMJDJ7wkEKq-215" target="lO8gTa4MTcMJDJ7wkEKq-181">
          <mxGeometry relative="1" as="geometry" />
        </mxCell>
        <mxCell id="lO8gTa4MTcMJDJ7wkEKq-215" value="id" style="ellipse;whiteSpace=wrap;html=1;" vertex="1" parent="1">
          <mxGeometry x="10" y="-10" width="80" height="40" as="geometry" />
        </mxCell>
        <mxCell id="lO8gTa4MTcMJDJ7wkEKq-218" style="rounded=0;orthogonalLoop=1;jettySize=auto;html=1;exitX=0.5;exitY=1;exitDx=0;exitDy=0;entryX=0.75;entryY=0;entryDx=0;entryDy=0;endArrow=none;startFill=0;" edge="1" parent="1" source="lO8gTa4MTcMJDJ7wkEKq-216" target="lO8gTa4MTcMJDJ7wkEKq-181">
          <mxGeometry relative="1" as="geometry" />
        </mxCell>
        <mxCell id="lO8gTa4MTcMJDJ7wkEKq-216" value="name" style="ellipse;whiteSpace=wrap;html=1;" vertex="1" parent="1">
          <mxGeometry x="190" y="-10" width="80" height="40" as="geometry" />
        </mxCell>
        <mxCell id="lO8gTa4MTcMJDJ7wkEKq-220" style="rounded=0;orthogonalLoop=1;jettySize=auto;html=1;exitX=1;exitY=0.5;exitDx=0;exitDy=0;entryX=0;entryY=0.25;entryDx=0;entryDy=0;endArrow=none;startFill=0;" edge="1" parent="1" source="lO8gTa4MTcMJDJ7wkEKq-219" target="lO8gTa4MTcMJDJ7wkEKq-178">
          <mxGeometry relative="1" as="geometry" />
        </mxCell>
        <mxCell id="lO8gTa4MTcMJDJ7wkEKq-219" value="id" style="ellipse;whiteSpace=wrap;html=1;" vertex="1" parent="1">
          <mxGeometry x="220" y="545" width="90" height="40" as="geometry" />
        </mxCell>
        <mxCell id="lO8gTa4MTcMJDJ7wkEKq-222" style="rounded=0;orthogonalLoop=1;jettySize=auto;html=1;exitX=1;exitY=0.5;exitDx=0;exitDy=0;entryX=0;entryY=0.5;entryDx=0;entryDy=0;endArrow=none;startFill=0;" edge="1" parent="1" source="lO8gTa4MTcMJDJ7wkEKq-221" target="lO8gTa4MTcMJDJ7wkEKq-178">
          <mxGeometry relative="1" as="geometry" />
        </mxCell>
        <mxCell id="lO8gTa4MTcMJDJ7wkEKq-221" value="name" style="ellipse;whiteSpace=wrap;html=1;" vertex="1" parent="1">
          <mxGeometry x="220" y="620" width="90" height="40" as="geometry" />
        </mxCell>
        <mxCell id="lO8gTa4MTcMJDJ7wkEKq-224" style="rounded=0;orthogonalLoop=1;jettySize=auto;html=1;exitX=0;exitY=0.5;exitDx=0;exitDy=0;entryX=1;entryY=0.25;entryDx=0;entryDy=0;endArrow=none;startFill=0;" edge="1" parent="1" source="lO8gTa4MTcMJDJ7wkEKq-223" target="lO8gTa4MTcMJDJ7wkEKq-178">
          <mxGeometry relative="1" as="geometry" />
        </mxCell>
        <mxCell id="lO8gTa4MTcMJDJ7wkEKq-223" value="desc" style="ellipse;whiteSpace=wrap;html=1;" vertex="1" parent="1">
          <mxGeometry x="595" y="530" width="90" height="40" as="geometry" />
        </mxCell>
        <mxCell id="lO8gTa4MTcMJDJ7wkEKq-226" style="rounded=0;orthogonalLoop=1;jettySize=auto;html=1;exitX=0;exitY=0.5;exitDx=0;exitDy=0;entryX=1;entryY=0.75;entryDx=0;entryDy=0;endArrow=none;startFill=0;" edge="1" parent="1" source="lO8gTa4MTcMJDJ7wkEKq-225" target="lO8gTa4MTcMJDJ7wkEKq-178">
          <mxGeometry relative="1" as="geometry" />
        </mxCell>
        <mxCell id="lO8gTa4MTcMJDJ7wkEKq-225" value="status_id" style="ellipse;whiteSpace=wrap;html=1;" vertex="1" parent="1">
          <mxGeometry x="610" y="605" width="90" height="40" as="geometry" />
        </mxCell>
        <mxCell id="lO8gTa4MTcMJDJ7wkEKq-227" style="rounded=0;orthogonalLoop=1;jettySize=auto;html=1;exitX=1;exitY=0.5;exitDx=0;exitDy=0;entryX=0;entryY=0.25;entryDx=0;entryDy=0;endArrow=none;startFill=0;" edge="1" parent="1" source="lO8gTa4MTcMJDJ7wkEKq-228">
          <mxGeometry relative="1" as="geometry">
            <mxPoint x="400" y="810" as="targetPoint" />
          </mxGeometry>
        </mxCell>
        <mxCell id="lO8gTa4MTcMJDJ7wkEKq-228" value="id" style="ellipse;whiteSpace=wrap;html=1;" vertex="1" parent="1">
          <mxGeometry x="220" y="755" width="90" height="40" as="geometry" />
        </mxCell>
        <mxCell id="lO8gTa4MTcMJDJ7wkEKq-229" style="rounded=0;orthogonalLoop=1;jettySize=auto;html=1;exitX=1;exitY=0.5;exitDx=0;exitDy=0;entryX=0;entryY=0.5;entryDx=0;entryDy=0;endArrow=none;startFill=0;" edge="1" parent="1" source="lO8gTa4MTcMJDJ7wkEKq-230">
          <mxGeometry relative="1" as="geometry">
            <mxPoint x="400" y="825" as="targetPoint" />
          </mxGeometry>
        </mxCell>
        <mxCell id="lO8gTa4MTcMJDJ7wkEKq-230" value="name" style="ellipse;whiteSpace=wrap;html=1;" vertex="1" parent="1">
          <mxGeometry x="220" y="830" width="90" height="40" as="geometry" />
        </mxCell>
        <mxCell id="lO8gTa4MTcMJDJ7wkEKq-231" style="rounded=0;orthogonalLoop=1;jettySize=auto;html=1;exitX=0;exitY=0.5;exitDx=0;exitDy=0;entryX=1;entryY=0.25;entryDx=0;entryDy=0;endArrow=none;startFill=0;" edge="1" parent="1" source="lO8gTa4MTcMJDJ7wkEKq-232">
          <mxGeometry relative="1" as="geometry">
            <mxPoint x="520" y="810" as="targetPoint" />
          </mxGeometry>
        </mxCell>
        <mxCell id="lO8gTa4MTcMJDJ7wkEKq-232" value="desc" style="ellipse;whiteSpace=wrap;html=1;" vertex="1" parent="1">
          <mxGeometry x="580" y="750" width="90" height="40" as="geometry" />
        </mxCell>
        <mxCell id="lO8gTa4MTcMJDJ7wkEKq-233" style="rounded=0;orthogonalLoop=1;jettySize=auto;html=1;exitX=0;exitY=0.5;exitDx=0;exitDy=0;entryX=0.75;entryY=1;entryDx=0;entryDy=0;endArrow=none;startFill=0;" edge="1" parent="1" source="lO8gTa4MTcMJDJ7wkEKq-234" target="lO8gTa4MTcMJDJ7wkEKq-180">
          <mxGeometry relative="1" as="geometry">
            <mxPoint x="520" y="840" as="targetPoint" />
          </mxGeometry>
        </mxCell>
        <mxCell id="lO8gTa4MTcMJDJ7wkEKq-234" value="status_id" style="ellipse;whiteSpace=wrap;html=1;" vertex="1" parent="1">
          <mxGeometry x="505" y="910" width="90" height="40" as="geometry" />
        </mxCell>
        <mxCell id="lO8gTa4MTcMJDJ7wkEKq-236" style="rounded=0;orthogonalLoop=1;jettySize=auto;html=1;exitX=0.5;exitY=0;exitDx=0;exitDy=0;entryX=0.25;entryY=1;entryDx=0;entryDy=0;endArrow=none;startFill=0;" edge="1" parent="1" source="lO8gTa4MTcMJDJ7wkEKq-235" target="lO8gTa4MTcMJDJ7wkEKq-180">
          <mxGeometry relative="1" as="geometry" />
        </mxCell>
        <mxCell id="lO8gTa4MTcMJDJ7wkEKq-235" value="task_id" style="ellipse;whiteSpace=wrap;html=1;" vertex="1" parent="1">
          <mxGeometry x="340" y="920" width="90" height="40" as="geometry" />
        </mxCell>
        <mxCell id="lO8gTa4MTcMJDJ7wkEKq-238" style="rounded=0;orthogonalLoop=1;jettySize=auto;html=1;exitX=1;exitY=0.5;exitDx=0;exitDy=0;entryX=0;entryY=0.5;entryDx=0;entryDy=0;endArrow=none;startFill=0;" edge="1" parent="1" source="lO8gTa4MTcMJDJ7wkEKq-237" target="lO8gTa4MTcMJDJ7wkEKq-179">
          <mxGeometry relative="1" as="geometry">
            <mxPoint x="-10" y="300" as="targetPoint" />
          </mxGeometry>
        </mxCell>
        <mxCell id="lO8gTa4MTcMJDJ7wkEKq-237" value="role_id" style="ellipse;whiteSpace=wrap;html=1;" vertex="1" parent="1">
          <mxGeometry x="-120" y="280" width="90" height="40" as="geometry" />
        </mxCell>
        <mxCell id="lO8gTa4MTcMJDJ7wkEKq-245" style="rounded=0;orthogonalLoop=1;jettySize=auto;html=1;exitX=0;exitY=0.5;exitDx=0;exitDy=0;entryX=1;entryY=0;entryDx=0;entryDy=0;endArrow=ERoneToMany;endFill=0;" edge="1" parent="1" source="lO8gTa4MTcMJDJ7wkEKq-239" target="lO8gTa4MTcMJDJ7wkEKq-177">
          <mxGeometry relative="1" as="geometry" />
        </mxCell>
        <mxCell id="lO8gTa4MTcMJDJ7wkEKq-239" value="project_status" style="rounded=0;whiteSpace=wrap;html=1;" vertex="1" parent="1">
          <mxGeometry x="730" y="90" width="120" height="60" as="geometry" />
        </mxCell>
        <mxCell id="lO8gTa4MTcMJDJ7wkEKq-240" style="rounded=0;orthogonalLoop=1;jettySize=auto;html=1;exitX=1;exitY=1;exitDx=0;exitDy=0;endArrow=none;startFill=0;entryX=0.25;entryY=0;entryDx=0;entryDy=0;" edge="1" parent="1" source="lO8gTa4MTcMJDJ7wkEKq-241" target="lO8gTa4MTcMJDJ7wkEKq-239">
          <mxGeometry relative="1" as="geometry">
            <mxPoint x="760" y="70" as="targetPoint" />
          </mxGeometry>
        </mxCell>
        <mxCell id="lO8gTa4MTcMJDJ7wkEKq-241" value="id" style="ellipse;whiteSpace=wrap;html=1;" vertex="1" parent="1">
          <mxGeometry x="650" width="80" height="40" as="geometry" />
        </mxCell>
        <mxCell id="lO8gTa4MTcMJDJ7wkEKq-242" style="rounded=0;orthogonalLoop=1;jettySize=auto;html=1;exitX=0.5;exitY=1;exitDx=0;exitDy=0;entryX=0.5;entryY=0;entryDx=0;entryDy=0;endArrow=none;startFill=0;" edge="1" parent="1" source="lO8gTa4MTcMJDJ7wkEKq-243" target="lO8gTa4MTcMJDJ7wkEKq-239">
          <mxGeometry relative="1" as="geometry">
            <mxPoint x="810" y="90" as="targetPoint" />
          </mxGeometry>
        </mxCell>
        <mxCell id="lO8gTa4MTcMJDJ7wkEKq-243" value="name" style="ellipse;whiteSpace=wrap;html=1;" vertex="1" parent="1">
          <mxGeometry x="790" y="-20" width="80" height="40" as="geometry" />
        </mxCell>
        <mxCell id="lO8gTa4MTcMJDJ7wkEKq-256" style="rounded=0;orthogonalLoop=1;jettySize=auto;html=1;exitX=0;exitY=0.5;exitDx=0;exitDy=0;entryX=1;entryY=0.5;entryDx=0;entryDy=0;endArrow=ERoneToMany;startFill=0;endFill=0;" edge="1" parent="1" source="lO8gTa4MTcMJDJ7wkEKq-246" target="lO8gTa4MTcMJDJ7wkEKq-180">
          <mxGeometry relative="1" as="geometry" />
        </mxCell>
        <mxCell id="lO8gTa4MTcMJDJ7wkEKq-257" style="rounded=0;orthogonalLoop=1;jettySize=auto;html=1;exitX=0;exitY=0.5;exitDx=0;exitDy=0;entryX=0.75;entryY=1;entryDx=0;entryDy=0;endArrow=ERoneToMany;startFill=0;startArrow=none;endFill=0;" edge="1" parent="1" source="lO8gTa4MTcMJDJ7wkEKq-246" target="lO8gTa4MTcMJDJ7wkEKq-178">
          <mxGeometry relative="1" as="geometry" />
        </mxCell>
        <mxCell id="lO8gTa4MTcMJDJ7wkEKq-246" value="task_status" style="rounded=0;whiteSpace=wrap;html=1;" vertex="1" parent="1">
          <mxGeometry x="900" y="750" width="120" height="60" as="geometry" />
        </mxCell>
        <mxCell id="lO8gTa4MTcMJDJ7wkEKq-247" style="rounded=0;orthogonalLoop=1;jettySize=auto;html=1;exitX=1;exitY=1;exitDx=0;exitDy=0;endArrow=none;startFill=0;entryX=0.25;entryY=0;entryDx=0;entryDy=0;" edge="1" parent="1" source="lO8gTa4MTcMJDJ7wkEKq-248" target="lO8gTa4MTcMJDJ7wkEKq-246">
          <mxGeometry relative="1" as="geometry">
            <mxPoint x="930" y="730" as="targetPoint" />
          </mxGeometry>
        </mxCell>
        <mxCell id="lO8gTa4MTcMJDJ7wkEKq-248" value="id" style="ellipse;whiteSpace=wrap;html=1;" vertex="1" parent="1">
          <mxGeometry x="820" y="660" width="80" height="40" as="geometry" />
        </mxCell>
        <mxCell id="lO8gTa4MTcMJDJ7wkEKq-249" style="rounded=0;orthogonalLoop=1;jettySize=auto;html=1;exitX=0.5;exitY=1;exitDx=0;exitDy=0;entryX=0.5;entryY=0;entryDx=0;entryDy=0;endArrow=none;startFill=0;" edge="1" parent="1" source="lO8gTa4MTcMJDJ7wkEKq-250" target="lO8gTa4MTcMJDJ7wkEKq-246">
          <mxGeometry relative="1" as="geometry">
            <mxPoint x="980" y="750" as="targetPoint" />
          </mxGeometry>
        </mxCell>
        <mxCell id="lO8gTa4MTcMJDJ7wkEKq-250" value="name" style="ellipse;whiteSpace=wrap;html=1;" vertex="1" parent="1">
          <mxGeometry x="1000" y="660" width="80" height="40" as="geometry" />
        </mxCell>
        <mxCell id="lO8gTa4MTcMJDJ7wkEKq-255" style="rounded=0;orthogonalLoop=1;jettySize=auto;html=1;exitX=1;exitY=0.5;exitDx=0;exitDy=0;entryX=0.25;entryY=0;entryDx=0;entryDy=0;endArrow=none;startFill=0;" edge="1" parent="1" source="lO8gTa4MTcMJDJ7wkEKq-254" target="lO8gTa4MTcMJDJ7wkEKq-177">
          <mxGeometry relative="1" as="geometry" />
        </mxCell>
        <mxCell id="lO8gTa4MTcMJDJ7wkEKq-254" value="status_id" style="ellipse;whiteSpace=wrap;html=1;" vertex="1" parent="1">
          <mxGeometry x="230" y="190" width="90" height="40" as="geometry" />
        </mxCell>
      </root>
    </mxGraphModel>
  </diagram>
</mxfile>
